  <svg
    xmlns="http://www.w3.org/2000/svg"
    viewBox="0 0 24 24"
    width="1em"
    height="1em"
    fill="#e6e8eb"
    stroke="#4C5664"
    strokeWidth="3"
  >
    <rect x="1" y="4" width="8" height="16" rx="1" strokeWidth="3"/>
    <rect x="15" y="4" width="8" height="16" rx="1" strokeWidth="3"/>
    <line x1="2.2" y1="6" x2="3.1" y2="6" strokeWidth="3"/>
    <line x1="3.8" y1="6" x2="7.5" y2="6" strokeWidth="3"/>
    <line x1="2.2" y1="8.5" x2="3.1" y2="8.5" strokeWidth="3"/>
    <line x1="3.8" y1="8.5" x2="7.5" y2="8.5" strokeWidth="3"/>
    <line x1="2.2" y1="11" x2="3.1" y2="11" strokeWidth="3"/>
    <line x1="3.8" y1="11" x2="7.5" y2="11" strokeWidth="3"/>
    <line x1="16.4" y1="6" x2="17.5" y2="6" strokeWidth="3"/>
    <line x1="18.2" y1="6" x2="22" y2="6" strokeWidth="3"/>
    <line x1="16.4" y1="8.5" x2="17.5" y2="8.5" strokeWidth="3"/>
    <line x1="18.2" y1="8.5" x2="22" y2="8.5" strokeWidth="3"/>
    <path d="M11 7l2 2-2 2" strokeWidth="3" stroke="#4C5664" fill="#4C5664"/>
    <path d="M13 12l-2 2 2 2" strokeWidth="3" stroke="#4C5664" fill="#4C5664"/>
  </svg>
